:FULLY-SPECIFIED
:FORCE-ALL-JOINTS-BE-3DOF
:DEGREES
1427
root -2.08637 13.7129 12.6858 366.609 27.3123 366.442
lfemur 25.5626 -0.26927 -10.2338
ltibia 16.9652 0 0
lfoot -15.8205 34.6632 0
ltoes -23.6441 0 0
rfemur -65.5731 -21.425 12.2738
rtibia 74.2273 0 0
rfoot -9.33325 10.2338 0
rtoes 4.72824 0 0
lowerback 10.1899 2.01862 -10.1824
upperback -3.35257 1.21246 -0.923406
thorax -9.60969 1.16484 4.50779
lowerneck -0.0223833 -11.6665 -10.5081
upperneck 6.16701 -16.0465 9.58739
head 3.46271 -7.97782 3.8538
lclavicle 1.32555e-014 -2.31847e-014 0
lhumerus -73.6908 -18.0259 104.395
lradius 100.834 0 0
lwrist 58.2331 0 0
lhand -9.53093 41.5196 0
lfingers 7.12502 0 0
lthumb 16.4353 -289.157 0
rclavicle 1.32555e-014 -2.31847e-014 0
rhumerus 63.1634 -13.9815 -27.814
rradius 81.992 0 0
rwrist 26.8385 0 0
rhand -43.8662 -31.2768 0
rfingers 7.12502 0 0
rthumb -16.6924 -60.5793 0
1428
root -2.09011 13.7113 12.6866 366.633 27.3011 366.458
lfemur 25.5025 -0.253822 -10.2351
ltibia 17.0361 0 0
lfoot -15.8188 34.676 0
ltoes -23.5594 0 0
rfemur -65.6258 -21.463 12.3049
rtibia 74.2366 0 0
rfoot -9.30947 10.2815 0
rtoes 4.781 0 0
lowerback 10.1929 2.01375 -10.1868
upperback -3.35904 1.20451 -0.92346
thorax -9.61757 1.16188 4.51161
lowerneck -0.0326202 -11.6594 -10.4988
upperneck 6.16223 -16.0348 9.57447
head 3.45994 -7.97192 3.84916
lclavicle 1.16522e-014 -2.43504e-014 0
lhumerus -73.6921 -18.0489 104.42
lradius 100.81 0 0
lwrist 58.2372 0 0
lhand -9.52589 41.4403 0
lfingers 7.12502 0 0
lthumb 16.4401 -289.236 0
rclavicle 1.16522e-014 -2.43504e-014 0
rhumerus 63.1393 -13.9841 -27.7988
rradius 82.0237 0 0
rwrist 26.7958 0 0
rhand -43.8404 -31.2645 0
rfingers 7.12502 0 0
rthumb -16.6676 -60.5689 0
1429
root -2.09385 13.7096 12.6875 366.657 27.29 366.479
lfemur 25.4395 -0.23724 -10.24
ltibia 17.1148 0 0
lfoot -15.8202 34.6887 0
ltoes -23.52 0 0
rfemur -65.6805 -21.5026 12.3332
rtibia 74.2489 0 0
rfoot -9.28252 10.3274 0
rtoes 4.81966 0 0
lowerback 10.1998 2.00932 -10.193
upperback -3.36437 1.19648 -0.923438
thorax -9.62655 1.15899 4.51646
lowerneck -0.0430407 -11.652 -10.4902
upperneck 6.15585 -16.0225 9.56096
head 3.45668 -7.96576 3.84452
lclavicle 1.01303e-014 -2.50966e-014 0
lhumerus -73.6921 -18.0711 104.445
lradius 100.788 0 0
lwrist 58.2415 0 0
lhand -9.52497 41.3658 0
lfingers 7.12502 0 0
lthumb 16.441 -289.311 0
rclavicle 1.01303e-014 -2.50966e-014 0
rhumerus 63.1163 -13.9861 -27.7839
rradius 82.059 0 0
rwrist 26.7522 0 0
rhand -43.8098 -31.2493 0
rfingers 7.12502 0 0
rthumb -16.6381 -60.5561 0
1430
root -2.09708 13.709 12.6845 366.681 27.2731 366.504
lfemur 25.3799 -0.218476 -10.2536
ltibia 17.197 0 0
lfoot -15.8245 34.705 0
ltoes -23.5193 0 0
rfemur -65.7385 -21.5465 12.3591
rtibia 74.2639 0 0
rfoot -9.25317 10.3895 0
rtoes 4.84338 0 0
lowerback 10.2056 2.00549 -10.205
upperback -3.37028 1.18823 -0.924002
thorax -9.6357 1.15636 4.52395
lowerneck -0.0490446 -11.6483 -10.4844
upperneck 6.14775 -16.0156 9.55125
head 3.4527 -7.96231 3.84102
lclavicle 8.5139e-015 -2.54453e-014 0
lhumerus -73.7071 -18.0923 104.474
lradius 100.77 0 0
lwrist 58.2494 0 0
lhand -9.52213 41.294 0
lfingers 7.12502 0 0
lthumb 16.4437 -289.383 0
rclavicle 8.5139e-015 -2.54453e-014 0
rhumerus 63.1033 -13.9992 -27.7696
rradius 82.102 0 0
rwrist 26.7205 0 0
rhand -43.7838 -31.232 0
rfingers 7.12502 0 0
rthumb -16.613 -60.5412 0
1431
root -2.10032 13.7083 12.6816 366.704 27.2457 366.533
lfemur 25.3286 -0.196774 -10.2797
ltibia 17.2785 0 0
lfoot -15.8312 34.7277 0
ltoes -23.5463 0 0
rfemur -65.8007 -21.5971 12.3834
rtibia 74.2806 0 0
rfoot -9.22207 10.4824 0
rtoes 4.85312 0 0
lowerback 10.2059 2.0023 -10.2257
upperback -3.37829 1.17963 -0.925705
thorax -9.64419 1.15412 4.5352
lowerneck -0.0469327 -11.6515 -10.4832
upperneck 6.13791 -16.0189 9.549
head 3.44785 -7.96395 3.83959
lclavicle 6.64636e-015 -2.54625e-014 0
lhumerus -73.7501 -18.1126 104.513
lradius 100.756 0 0
lwrist 58.2635 0 0
lhand -9.51213 41.2224 0
lfingers 7.12502 0 0
lthumb 16.4534 -289.455 0
rclavicle 6.64636e-015 -2.54625e-014 0
rhumerus 63.1071 -14.0327 -27.7561
rradius 82.156 0 0
rwrist 26.7109 0 0
rhand -43.7701 -31.2135 0
rfingers 7.12502 0 0
rthumb -16.5999 -60.5246 0
1432
root -2.10355 13.7077 12.6786 366.727 27.2095 366.565
lfemur 25.2838 -0.172503 -10.3167
ltibia 17.3601 0 0
lfoot -15.84 34.7557 0
ltoes -23.5993 0 0
rfemur -65.8665 -21.6532 12.4061
rtibia 74.2989 0 0
rfoot -9.18902 10.6009 0
rtoes 4.85023 0 0
lowerback 10.2019 1.99967 -10.2539
upperback -3.38796 1.17072 -0.928365
thorax -9.65223 1.15218 4.54965
lowerneck -0.0380728 -11.6604 -10.4857
upperneck 6.12644 -16.0307 9.55299
head 3.44222 -7.96979 3.83992
lclavicle 4.56979e-015 -2.51737e-014 0
lhumerus -73.8164 -18.1322 104.559
lradius 100.745 0 0
lwrist 58.2828 0 0
lhand -9.49651 41.1512 0
lfingers 7.12502 0 0
lthumb 16.4685 -289.527 0
rclavicle 4.56979e-015 -2.51737e-014 0
rhumerus 63.1248 -14.0833 -27.7431
rradius 82.2195 0 0
rwrist 26.7196 0 0
rhand -43.7663 -31.1936 0
rfingers 7.12502 0 0
rthumb -16.5964 -60.5063 0
1433
root -2.10678 13.7071 12.6757 366.75 27.1662 366.601
lfemur 25.2436 -0.146033 -10.3628
ltibia 17.4427 0 0
lfoot -15.8506 34.7881 0
ltoes -23.6768 0 0
rfemur -65.9356 -21.714 12.4273
rtibia 74.3183 0 0
rfoot -9.15383 10.7397 0
rtoes 4.83606 0 0
lowerback 10.1949 1.9975 -10.2882
upperback -3.39886 1.16152 -0.9318
thorax -9.66003 1.1505 4.56671
lowerneck -0.0238325 -11.6738 -10.4914
upperneck 6.11343 -16.049 9.562
head 3.43591 -7.97894 3.8417
lclavicle 2.3263e-015 -2.46045e-014 0
lhumerus -73.9011 -18.1512 104.611
lradius 100.739 0 0
lwrist 58.3063 0 0
lhand -9.47682 41.0807 0
lfingers 7.12502 0 0
lthumb 16.4875 -289.598 0
rclavicle 2.3263e-015 -2.46045e-014 0
rhumerus 63.1537 -14.1474 -27.7304
rradius 82.291 0 0
rwrist 26.7427 0 0
rhand -43.7699 -31.1725 0
rfingers 7.12502 0 0
rthumb -16.5999 -60.4866 0
1434
root -2.11002 13.7065 12.6727 366.772 27.1175 366.64
lfemur 25.2062 -0.117733 -10.4162
ltibia 17.5271 0 0
lfoot -15.863 34.8237 0
ltoes -23.7772 0 0
rfemur -66.0073 -21.7784 12.4471
rtibia 74.3385 0 0
rfoot -9.1163 10.8938 0
rtoes 4.81195 0 0
lowerback 10.1861 1.99572 -10.3272
upperback -3.41057 1.15207 -0.935826
thorax -9.66782 1.14898 4.58581
lowerneck -0.00557932 -11.6905 -10.4996
upperneck 6.09899 -16.0722 9.57479
head 3.42901 -7.99052 3.8446
lclavicle -4.20086e-017 -2.37806e-014 0
lhumerus -73.9994 -18.1698 104.667
lradius 100.734 0 0
lwrist 58.3328 0 0
lhand -9.45458 41.0111 0
lfingers 7.12502 0 0
lthumb 16.5089 -289.669 0
rclavicle -4.20086e-017 -2.37806e-014 0
rhumerus 63.1908 -14.2216 -27.7177
rradius 82.3691 0 0
rwrist 26.7764 0 0
rhand -43.7785 -31.1499 0
rfingers 7.12502 0 0
rthumb -16.6082 -60.4653 0
